Coordinates
version=1
nRows=19
nColumns=36
inDegrees=yes

Units are S.I. units (second, meters, Newtons, ...)
If the header above contains a line with 'inDegrees', this indicates whether rotational values are in degrees (yes) or radians (no).

endheader
time	pelvis_tilt	pelvis_list	pelvis_rotation	pelvis_tx	pelvis_ty	pelvis_tz	hip_flexion_r	hip_adduction_r	hip_rotation_r	knee_angle_r	knee_angle_r_beta	ankle_angle_r	subtalar_angle_r	mtp_angle_r	hip_flexion_l	hip_adduction_l	hip_rotation_l	knee_angle_l	knee_angle_l_beta	ankle_angle_l	subtalar_angle_l	mtp_angle_l	lumbar_extension	lumbar_bending	lumbar_rotation	arm_flex_r	arm_add_r	arm_rot_r	elbow_flex_r	pro_sup_r	arm_flex_l	arm_add_l	arm_rot_l	elbow_flex_l	pro_sup_l
      0.00000000	     -0.97872298	      0.71016401	      0.61960043	      0.32739856	      1.15007506	     -0.06845759	     -0.42218789	     -8.27417224	      1.39537228	      4.82587384	      0.08422739	      0.69569607	     -8.16515272	     -6.44727826	     -0.04234961	     -4.38862705	     -0.27841102	      7.18002320	      0.12531505	      4.81951759	    -10.00700388	     -6.44727826	     -4.86661250	     -1.08306711	     -3.47612037	    -22.16975599	    -22.37915959	    -69.37051237	     34.02758750	     85.87964780	     27.86101405	    -31.57701425	    -24.39355602	     32.30209210	     85.78155559
      0.01666670	     -2.59051181	      0.69798213	     -0.12589528	      0.32890232	      1.14445436	     -0.06747309	      1.19056946	     -8.40851002	      2.39555347	      4.50559303	      0.07863743	      3.06261965	     -5.30272332	     -6.70166657	      1.74408289	     -4.14899943	      0.18246063	      6.64863381	      0.11604055	      4.80386435	     -9.63505891	     -6.70166657	     -1.83494204	     -1.37235224	     -2.19800163	    -22.27234103	    -23.50509204	    -71.23423470	     32.53603626	     93.29595282	     29.50741962	    -28.65158769	    -37.48986142	     32.53300942	     99.62738714
      0.03333330	     -3.26326044	      1.21653378	     -0.84172960	      0.32959344	      1.14382007	     -0.06650897	      1.59707495	     -9.09098546	      2.46408728	      3.62334425	      0.06323929	      3.27399673	     -5.02337823	     -6.83141187	      1.98019069	     -3.68152704	     -0.29526345	      5.92421757	      0.10339710	      4.38090656	     -9.41023216	     -6.83141187	     -0.82087531	     -2.01315978	     -1.41589685	    -22.61476700	    -23.15957629	    -71.29380353	     33.08168864	     90.08791703	     29.08101741	    -28.88649305	    -38.52099313	     33.63222363	     96.53161882
      0.05000000	     -3.38682781	      1.56661900	     -1.12643660	      0.32946471	      1.14165137	     -0.06588193	      1.59228622	     -9.51004789	      2.76054271	      3.24407788	      0.05661984	      4.02995059	     -4.48684856	     -6.92620527	      1.50764003	     -3.30938208	      0.01386428	      5.02727347	      0.08774247	      4.18582149	     -9.76384994	     -6.92620527	     -0.28389368	     -2.43168158	     -0.80953089	    -22.63021459	    -23.06025375	    -74.58604739	     33.66506505	     87.83192600	     29.17510944	    -28.53904622	    -39.86698779	     34.74873170	     95.07862258
      0.06666670	     -3.39720253	      1.64937665	     -1.47240368	      0.32980235	      1.14212720	     -0.06568931	      1.56808433	     -9.57930503	      2.87589404	      3.04822665	      0.05320159	      4.46124216	     -4.44243887	     -6.99466069	      0.99737698	     -3.25081154	      0.03608959	      4.23908970	      0.07398607	      4.09092285	     -9.76244266	     -6.99466069	     -0.06257361	     -2.53830984	     -0.49077864	    -22.40324715	    -22.97745062	    -76.46342680	     36.01664359	     85.74466834	     28.91888666	    -28.47152112	    -40.11732925	     35.83470045	     93.33462243
      0.08333330	     -3.73335840	      1.69597838	     -1.62712467	      0.32972420	      1.13964023	     -0.06538091	      1.88561190	     -9.51589032	      2.76612404	      3.13762914	      0.05476196	      4.85497042	     -4.53912843	     -7.02000154	      1.17685501	     -3.21820868	      0.11203282	      3.99564706	      0.06973720	      4.14452774	     -9.49537403	     -7.02000154	      0.71399750	     -2.82277294	     -0.39254045	    -22.39310484	    -23.50603927	    -76.94915171	     37.29941570	     84.86545289	     29.08897440	    -28.73006580	    -40.11621789	     36.68507045	     92.42687508
      0.10000000	     -3.23844427	      1.69665400	     -1.73684078	      0.32969956	      1.13803190	     -0.06558817	      1.33670871	     -9.50299210	      2.70394784	      3.17165938	      0.05535590	      4.98939959	     -5.30710074	     -7.07292304	      0.43261466	     -3.20354603	      0.36497500	      3.67227177	      0.06409323	      3.49532655	    -10.68183284	     -7.07292304	      0.12319584	     -2.84726838	     -0.26927245	    -21.49110640	    -22.74511420	    -82.11536499	     41.28832209	     82.47272219	     30.17774348	    -28.82836560	    -40.05463957	     37.29999561	     90.38711111
      0.11666670	     -3.40219374	      1.72582798	     -1.91891679	      0.32957371	      1.13875579	     -0.06507005	      1.58914719	     -9.50054967	      2.62118570	      3.31968447	      0.05793942	      4.94614394	     -5.72782759	     -7.16377202	      0.45586655	     -3.20957149	      0.17875023	      3.52629204	      0.06154541	      3.09301282	    -10.88339581	     -7.16377202	      0.57808237	     -3.01135340	      0.20586486	    -21.62309297	    -22.47868362	    -84.07386753	     43.43571687	     79.53726198	     31.05983207	    -28.90525188	    -38.97383991	     37.71394251	     86.65833225
      0.13333330	     -3.35060676	      1.75118224	     -2.01961520	      0.32996650	      1.14255202	     -0.06546975	      1.50031322	     -9.50462364	      2.50213232	      3.34185027	      0.05832629	      4.93921146	     -5.81198800	     -7.19528475	      0.29203365	     -3.17212793	      0.09621193	      3.44057106	      0.06004929	      2.74294351	    -11.00269646	     -7.19528475	      0.69555161	     -3.05418075	     -0.07571717	    -21.21392306	    -22.43915532	    -83.95199497	     44.56821333	     78.26896007	     30.92786606	    -28.89991866	    -38.90757756	     38.49721829	     84.97094954
      0.15000000	     -3.41739386	      1.78538250	     -2.10969912	      0.33367531	      1.13725759	     -0.06966110	      1.48795647	     -9.61335314	      2.18231354	      3.45183186	      0.06024583	      5.04813978	     -5.65397104	     -7.19783609	      0.22005082	     -3.03836002	      0.23443736	      3.37148063	      0.05884344	      2.45363358	    -11.17464899	     -7.19783609	      1.05100404	     -3.00703799	      0.19454967	    -21.54482336	    -22.65901880	    -84.79429393	     44.79797598	     77.56244257	     31.44084951	    -28.55777404	    -38.72674386	     38.79618445	     83.21452448
      0.16666670	     -3.48954024	      1.86732275	     -2.18738019	      0.33413828	      1.13784261	     -0.06956628	      1.46482735	     -9.75881188	      2.17948860	      3.49348373	      0.06097279	      5.00097858	     -5.83272286	     -7.21784890	      0.15236928	     -2.88814835	      0.18802227	      3.30331689	      0.05765376	      2.16272292	    -11.39197561	     -7.21784890	      1.38873966	     -3.00804646	      0.12699606	    -21.74652558	    -22.99741489	    -84.76622991	     45.25846594	     76.92569372	     31.50226341	    -28.53532466	    -38.67919595	     38.82833433	     82.16597334
      0.18333330	     -3.54367212	      1.96772083	     -2.32259061	      0.33393208	      1.13850185	     -0.06905278	      1.43234064	     -9.91073826	      2.15105009	      3.46278028	      0.06043692	      4.99201030	     -5.76650781	     -7.23667656	      0.06603984	     -2.73436755	      0.22827016	      3.21729916	      0.05615246	      1.84151160	    -11.67560942	     -7.23667656	      1.64383651	     -3.09937076	      0.01254941	    -21.87926459	    -23.56159419	    -84.58715771	     45.51514545	     76.30675851	     31.95647269	    -28.70906740	    -38.54658324	     38.11270994	     81.14338241
      0.20000000	     -3.75712383	      2.09721785	     -2.50822832	      0.33449063	      1.13858080	     -0.06893489	      1.63196985	    -10.06832307	      2.03648124	      3.40463012	      0.05942201	      4.95450469	     -5.69148044	     -7.27235356	      0.14596044	     -2.55826486	      0.29375844	      3.10189040	      0.05413820	      1.46787961	    -12.17351291	     -7.27235356	      2.12738198	     -3.24279584	      0.60402681	    -22.94717330	    -23.75888290	    -84.49421814	     46.00191080	     75.46080487	     33.38984389	    -28.85434779	    -37.02379132	     36.53109106	     79.57568822
      0.21666670	     -3.87495417	      2.15220389	     -2.60372112	      0.33438207	      1.13899201	     -0.06834365	      1.70244898	    -10.14485747	      1.98018539	      3.21509901	      0.05611406	      4.94692684	     -5.55249654	     -7.30271428	      0.14662593	     -2.47543913	      0.27465517	      2.95812524	      0.05162903	      1.26649517	    -12.38488758	     -7.30271428	      2.33505507	     -3.30544121	      1.00826732	    -23.72024250	    -24.02967254	    -84.52740856	     46.53584590	     74.75493250	     34.74749631	    -28.99556300	    -35.40356639	     35.62202333	     78.25272387
      0.23333330	     -3.93415351	      2.18713573	     -2.70600073	      0.33482286	      1.13903197	     -0.06841243	      1.72056406	    -10.19412090	      1.92465425	      3.04143814	      0.05308311	      4.99135720	     -5.33335604	     -7.33993730	      0.08160589	     -2.42898253	      0.22288494	      2.78781523	      0.04865655	      1.09928425	    -12.45255438	     -7.33993730	      2.48961622	     -3.29156563	      1.38258283	    -24.35201648	    -24.44084150	    -84.44452606	     47.11461981	     73.62563271	     35.65617421	    -29.07583636	    -34.06351424	     35.30226832	     76.41114210
      0.25000000	     -3.94664031	      2.20707644	     -2.79070393	      0.33452465	      1.13923393	     -0.06803539	      1.67680999	    -10.19707456	      1.92164886	      2.82935507	      0.04938156	      5.03031766	     -5.16713318	     -7.34782562	     -0.00327681	     -2.40138116	      0.17996955	      2.63151162	      0.04592854	      0.97089864	    -12.48164856	     -7.34782562	      2.49548337	     -3.30850344	      1.32128733	    -24.51710263	    -24.65602066	    -84.00519535	     47.60228176	     73.32793251	     35.97209525	    -29.33759169	    -33.90125432	     35.23251844	     75.89715751
      0.26666670	     -3.89351668	      2.16080161	     -2.81996373	      0.33487573	      1.13929622	     -0.06828408	      1.53382571	    -10.13130300	      1.95701669	      2.69952755	      0.04711564	      5.02581122	     -5.01295902	     -7.36356086	     -0.12739570	     -2.43255006	      0.27613441	      2.49735719	      0.04358711	      0.92240821	    -12.48702325	     -7.36356086	      2.44542741	     -3.22436509	      1.46149416	    -25.02640298	    -24.83403225	    -83.11958402	     47.74686907	     72.77799970	     36.50339544	    -29.39787810	    -33.25753412	     34.68536284	     74.92485098
      0.28333330	     -3.88107778	      2.14969122	     -2.91675683	      0.33452297	      1.13945152	     -0.06792541	      1.51530738	    -10.09231430	      2.01226891	      2.63881109	      0.04605594	      5.05775735	     -4.83760806	     -7.39368530	     -0.21246953	     -2.43288275	      0.29701965	      2.34739854	      0.04096983	      0.79285004	    -12.57710962	     -7.39368530	      2.46313111	     -3.25724872	      1.69856683	    -25.49229186	    -24.95678824	    -82.40733000	     47.93443074	     71.92737091	     37.10838745	    -29.43923729	    -32.26276783	     33.82952737	     73.53168000
      0.30000000	     -3.81369738	      2.09874135	     -2.97046688	      0.33492094	      1.13935598	     -0.06812558	      1.38301930	    -10.02408421	      2.07837137	      2.53234339	      0.04419773	      4.97793117	     -4.79941618	     -7.41140053	     -0.35283759	     -2.47850993	      0.21917661	      2.20938637	      0.03856107	      0.82794481	    -12.30441043	     -7.41140053	      2.37605625	     -3.25685531	      1.52969987	    -25.56965357	    -25.33229048	    -81.95911564	     48.15644318	     70.87225599	     37.35002723	    -29.67047876	    -32.40790289	     33.22874560	     72.19312309
